<svg width="1642" height="1044" viewBox="0 0 1642 1044" fill="none" xmlns="http://www.w3.org/2000/svg">
<path fill-rule="evenodd" clip-rule="evenodd" d="M1190.06 189.783H1505.96V281.16H1234.94L1191.42 324.686V620.714L1234.94 664.241H1412.83V535.961H1286.31V444.584H1504.21V755.618H1197.09L1100.04 658.564V279.808L1190.06 189.783Z" fill="white"/>
<path fill-rule="evenodd" clip-rule="evenodd" d="M130.036 188.026H444.179L539.476 281.16V469.186L488.515 523.661H425.254L657.211 752.521H521.903L284.674 518.389V439.313H418.225L448.099 404.168V321.172L405.925 281.16H226.685V752.521H130.036V188.026Z" fill="white"/>
<rect x="776.706" y="358.479" width="87.8625" height="144.094" fill="white"/>
<rect x="776.706" y="565.834" width="87.8625" height="186.268" fill="white"/>
<circle cx="818.879" cy="210.869" r="52.7175" fill="white"/>
<circle cx="987.575" cy="463.914" r="42.174" fill="white"/>
<circle cx="650.183" cy="463.914" r="42.174" fill="white"/>
<rect x="959.459" width="52.7175" height="224.928" fill="#87B5F3"/>
<rect x="959.458" y="295.218" width="52.7175" height="63.261" fill="#87B5F3"/>
<rect x="959.458" y="583.407" width="52.7175" height="63.261" fill="#87B5F3"/>
<path d="M1288.06 87.8623C1273.51 87.8623 1261.71 76.0611 1261.71 61.5036V61.5036C1261.71 46.946 1273.51 35.1448 1288.06 35.1448L1507.72 35.1448L1507.72 87.8623L1288.06 87.8623Z" fill="#87B5F3"/>
<path d="M1570.98 87.8623L1570.98 35.1448L1607.88 35.1448C1622.44 35.1448 1634.24 46.946 1634.24 61.5036V61.5036C1634.24 76.0611 1622.44 87.8623 1607.88 87.8623L1570.98 87.8623Z" fill="#87B5F3"/>
<path d="M1288.06 934.857C1273.51 934.857 1261.71 923.056 1261.71 908.498V908.498C1261.71 893.941 1273.51 882.139 1288.06 882.139L1507.72 882.139L1507.72 934.857L1288.06 934.857Z" fill="#87B5F3"/>
<path d="M1570.98 934.857L1570.98 882.139L1607.88 882.139C1622.44 882.139 1634.24 893.941 1634.24 908.498V908.498C1634.24 923.056 1622.44 934.857 1607.88 934.857L1570.98 934.857Z" fill="#87B5F3"/>
<path d="M346.179 87.8633C360.736 87.8633 372.538 76.0621 372.538 61.5045V61.5045C372.538 46.947 360.736 35.1458 346.179 35.1458L126.523 35.1458L126.523 87.8633L346.179 87.8633Z" fill="#87B5F3"/>
<path d="M63.261 87.8633L63.261 35.1458L26.3588 35.1458C11.8012 35.1458 7.03372e-06 46.947 6.39739e-06 61.5045V61.5045C5.76106e-06 76.0621 11.8012 87.8633 26.3588 87.8633L63.261 87.8633Z" fill="#87B5F3"/>
<path d="M346.179 934.857C360.736 934.857 372.538 923.056 372.538 908.498V908.498C372.538 893.941 360.736 882.139 346.179 882.139L126.523 882.139L126.523 934.857L346.179 934.857Z" fill="#87B5F3"/>
<path d="M63.261 934.857L63.261 882.139L26.3588 882.139C11.8012 882.139 7.03372e-06 893.941 6.39739e-06 908.498V908.498C5.76106e-06 923.056 11.8012 934.857 26.3588 934.857L63.261 934.857Z" fill="#87B5F3"/>
<rect x="622.067" width="52.7175" height="224.928" fill="#87B5F3"/>
<rect x="622.067" y="295.218" width="52.7175" height="63.261" fill="#87B5F3"/>
<rect x="622.067" y="583.407" width="52.7175" height="63.261" fill="#87B5F3"/>
<rect x="63.261" y="470.942" width="52.7175" height="63.261" transform="rotate(90 63.261 470.942)" fill="#87B5F3"/>
<rect width="52.7175" height="63.261" transform="matrix(4.37114e-08 1 1 -4.37114e-08 1578.01 474.458)" fill="#87B5F3"/>
<path d="M447.64 1040.29V848.963H482.3V1011.24H566.567V1040.29H447.64Z" fill="white"/>
<path d="M649.458 1040.29H612.463L679.821 848.963H722.608L790.059 1040.29H753.064L701.962 888.201H700.467L649.458 1040.29ZM650.673 965.274H751.569V993.114H650.673V965.274Z" fill="white"/>
<path d="M836.306 1040.29V848.963H909.549C923.376 848.963 934.866 851.143 944.022 855.503C953.24 859.8 960.122 865.686 964.668 873.16C969.277 880.634 971.581 889.104 971.581 898.571C971.581 906.356 970.087 913.02 967.097 918.563C964.108 924.044 960.091 928.497 955.046 931.922C950.001 935.348 944.364 937.808 938.136 939.303V941.171C944.925 941.545 951.433 943.631 957.662 947.431C963.952 951.167 969.09 956.461 973.076 963.312C977.062 970.163 979.055 978.447 979.055 988.163C979.055 998.066 976.657 1006.97 971.862 1014.88C967.066 1022.73 959.841 1028.93 950.188 1033.47C940.534 1038.02 928.389 1040.29 913.753 1040.29H836.306ZM870.966 1011.33H908.241C920.822 1011.33 929.884 1008.93 935.427 1004.14C941.032 999.28 943.835 993.052 943.835 985.453C943.835 979.786 942.434 974.679 939.631 970.132C936.828 965.523 932.842 961.911 927.673 959.295C922.504 956.617 916.338 955.278 909.175 955.278H870.966V1011.33ZM870.966 930.334H905.252C911.231 930.334 916.618 929.244 921.414 927.065C926.209 924.822 929.977 921.677 932.718 917.629C935.52 913.518 936.922 908.66 936.922 903.055C936.922 895.643 934.306 889.54 929.074 884.744C923.905 879.949 916.213 877.551 905.999 877.551H870.966V930.334Z" fill="white"/>
<path d="M1134.23 901.56C1133.36 893.401 1129.69 887.049 1123.21 882.502C1116.79 877.956 1108.45 875.682 1098.17 875.682C1090.95 875.682 1084.75 876.772 1079.58 878.952C1074.41 881.132 1070.46 884.09 1067.72 887.827C1064.98 891.564 1063.57 895.83 1063.51 900.626C1063.51 904.612 1064.41 908.069 1066.22 910.996C1068.09 913.923 1070.61 916.414 1073.79 918.47C1076.96 920.463 1080.48 922.144 1084.34 923.514C1088.21 924.885 1092.1 926.037 1096.02 926.971L1113.96 931.455C1121.18 933.137 1128.13 935.41 1134.79 938.275C1141.52 941.14 1147.53 944.752 1152.82 949.112C1158.18 953.472 1162.41 958.735 1165.53 964.901C1168.64 971.066 1170.2 978.291 1170.2 986.575C1170.2 997.785 1167.34 1007.66 1161.61 1016.19C1155.88 1024.66 1147.59 1031.29 1136.75 1036.09C1125.98 1040.82 1112.93 1043.19 1097.61 1043.19C1082.73 1043.19 1069.8 1040.88 1058.84 1036.28C1047.94 1031.67 1039.41 1024.94 1033.24 1016.1C1027.14 1007.25 1023.84 996.477 1023.34 983.772H1057.44C1057.94 990.436 1059.99 995.979 1063.61 1000.4C1067.22 1004.82 1071.92 1008.12 1077.71 1010.3C1083.57 1012.48 1090.11 1013.57 1097.33 1013.57C1104.87 1013.57 1111.47 1012.45 1117.14 1010.21C1122.87 1007.91 1127.35 1004.73 1130.59 1000.68C1133.83 996.571 1135.48 991.775 1135.54 986.294C1135.48 981.312 1134.01 977.201 1131.15 973.963C1128.28 970.662 1124.27 967.921 1119.1 965.741C1113.99 963.499 1108.01 961.506 1101.16 959.762L1079.39 954.157C1063.64 950.109 1051.18 943.974 1042.02 935.753C1032.93 927.469 1028.39 916.477 1028.39 902.775C1028.39 891.502 1031.44 881.63 1037.54 873.16C1043.71 864.69 1052.08 858.119 1062.67 853.448C1073.26 848.714 1085.25 846.348 1098.64 846.348C1112.22 846.348 1124.11 848.714 1134.33 853.448C1144.6 858.119 1152.67 864.627 1158.52 872.973C1164.38 881.256 1167.4 890.786 1167.58 901.56H1134.23Z" fill="white"/>
</svg>
