<svg width="400" height="400" viewBox="0 0 400 400" fill="none" xmlns="http://www.w3.org/2000/svg">
<g clip-path="url(#clip0_62_25)">
<path fill-rule="evenodd" clip-rule="evenodd" d="M144.866 378.698L73.0804 327.441C53.435 313.431 43.6004 306.402 38.3121 296.122C33 285.842 33 273.745 33 249.646V156.813C33 149.115 33 142.66 33.1675 137.09L176.571 239.414V400C168.029 395.218 158.075 388.118 144.866 378.698ZM224.429 399.976C232.971 395.195 242.925 388.07 256.134 378.651L327.92 327.417C347.565 313.407 357.4 306.378 362.688 296.098C368 285.818 368 273.745 368 249.622V156.789C368 149.091 368 142.636 367.833 137.066L224.429 239.414V399.976ZM347.134 93.0759L200.5 197.743L53.8657 93.0998C58.9386 89.0833 65.2318 84.5887 73.0804 78.9944L144.866 27.7607C171.738 8.58689 185.186 -1 200.5 -1C215.814 -1 229.262 8.56298 256.134 27.7607L327.92 78.9944C335.792 84.5887 342.061 89.0594 347.134 93.0759Z" fill="white"/>
</g>
<defs>
<clipPath id="clip0_62_25">
<rect width="400" height="400" fill="white"/>
</clipPath>
</defs>
</svg>
