<svg width="400" height="400" viewBox="0 0 400 400" fill="none" xmlns="http://www.w3.org/2000/svg">
<path d="M101.27 27.0002C100.969 26.9953 100.672 27.0699 100.408 27.2164C100.145 27.3629 99.9248 27.5762 99.7699 27.8348L0.237504 199.149C0.082034 199.412 0 199.711 0 200.017C0 200.322 0.082034 200.622 0.237504 200.885L100.887 372.149C101.553 373.284 103.22 373.284 103.886 372.149L203.419 200.851C203.569 200.586 203.646 200.284 203.64 199.979C203.634 199.673 203.546 199.375 203.386 199.115L102.77 27.8348C102.615 27.5762 102.395 27.3629 102.131 27.2164C101.868 27.0699 101.571 26.9953 101.27 27.0002ZM148.986 27.0002C148.685 26.9987 148.388 27.0766 148.127 27.2262C147.865 27.3757 147.647 27.5915 147.495 27.852C147.343 28.1125 147.263 28.4085 147.261 28.7102C147.259 29.0119 147.337 29.3087 147.486 29.5709L233.919 179.251C234.07 179.517 234.288 179.739 234.551 179.894C234.814 180.049 235.113 180.133 235.419 180.136H287.368C288.701 180.136 289.535 178.667 288.868 177.515L202.436 27.8515C202.281 27.5909 202.062 27.3752 201.799 27.2258C201.536 27.0765 201.238 26.9987 200.936 27.0002H148.986ZM247.168 27.0002C246.868 26.9995 246.573 27.0785 246.313 27.2292C246.053 27.3799 245.837 27.5969 245.688 27.8581C245.539 28.1193 245.462 28.4155 245.464 28.7163C245.467 29.0172 245.549 29.312 245.702 29.5709L344.268 199.983L245.702 370.396C245.549 370.655 245.467 370.95 245.464 371.251C245.462 371.551 245.539 371.848 245.688 372.109C245.837 372.37 246.053 372.587 246.313 372.738C246.573 372.888 246.868 372.967 247.168 372.967H299.218C299.514 372.971 299.807 372.896 300.064 372.749C300.322 372.602 300.536 372.389 300.685 372.132L399.767 200.835C399.92 200.577 400 200.283 400 199.983C400 199.684 399.92 199.39 399.767 199.132L300.685 27.8515C300.539 27.5912 300.325 27.3749 300.067 27.2252C299.809 27.0754 299.516 26.9978 299.218 27.0002H247.168ZM234.002 222.301C233.699 222.297 233.401 222.376 233.14 222.529C232.879 222.682 232.664 222.903 232.519 223.169L147.503 370.396C146.836 371.548 147.669 372.967 149.003 372.967H200.952C201.253 372.97 201.55 372.895 201.813 372.748C202.076 372.602 202.296 372.39 202.452 372.132L287.451 224.905C287.605 224.643 287.686 224.344 287.686 224.04C287.687 223.736 287.607 223.437 287.454 223.174C287.302 222.911 287.082 222.693 286.818 222.542C286.554 222.392 286.255 222.315 285.951 222.318L234.002 222.301Z" fill="white"/>
</svg>
