<svg width="400" height="400" viewBox="0 0 400 400" fill="none" xmlns="http://www.w3.org/2000/svg">
<path d="M256.667 45C252.701 52.1127 249.168 59.4582 246.085 66.9967C215.793 62.1984 184.936 62.1984 154.643 66.9967C151.56 59.4582 148.027 52.1127 144.062 45C115.527 49.8833 87.7872 58.6287 61.6045 70.996C14.7844 138.671 -6.44885 220.832 1.70827 302.761C32.2202 325.734 66.4652 343.256 102.933 354.553C111.237 343.567 118.648 331.931 125.094 319.758C113.197 315.364 101.761 309.805 90.9537 303.161C93.9177 301.185 96.7216 298.979 99.3391 296.562C130.854 311.766 165.384 319.661 200.364 319.661C235.344 319.661 269.874 311.766 301.389 296.562C304.184 298.961 306.979 301.161 309.775 303.161C298.909 309.753 287.484 315.373 275.634 319.958C281.813 332.407 289.026 344.314 297.196 355.553C333.618 344.295 367.804 326.769 398.221 303.761C406.574 221.817 385.324 139.589 338.325 71.9959C312.437 59.3726 284.971 50.2926 256.667 45ZM134.079 255.968C124.088 255.25 114.763 250.682 108.062 243.225C101.362 235.768 97.8057 226.001 98.1412 215.974C97.7551 205.934 101.293 196.139 108.004 188.67C114.715 181.202 124.069 176.649 134.079 175.98C144.088 176.649 153.443 181.202 160.154 188.67C166.864 196.139 170.403 205.934 170.017 215.974C170.403 226.014 166.864 235.809 160.154 243.278C153.443 250.746 144.088 255.299 134.079 255.968ZM266.649 255.968C256.658 255.25 247.334 250.682 240.633 243.225C233.932 235.768 230.376 226.001 230.712 215.974C230.325 205.934 233.864 196.139 240.575 188.67C247.286 181.202 256.64 176.649 266.649 175.98C276.677 176.599 286.062 181.137 292.783 188.617C299.504 196.097 303.025 205.921 302.587 215.974C303.025 226.027 299.504 235.851 292.783 243.331C286.062 250.811 276.677 255.349 266.649 255.968Z" fill="white"/>
</svg>
