<svg width="489" height="489" viewBox="0 0 489 489" fill="none" xmlns="http://www.w3.org/2000/svg">
<path d="M314.133 56C309.296 64.7032 304.985 73.6914 301.224 82.9156C264.267 77.0444 226.621 77.0444 189.665 82.9156C185.904 73.6914 181.593 64.7032 176.755 56C141.943 61.9753 108.1 72.6764 76.1575 87.8094C19.037 170.619 -6.8676 271.153 3.08409 371.402C40.3086 399.514 82.0876 420.954 126.578 434.777C136.709 421.333 145.75 407.096 153.615 392.201C139.1 386.825 125.148 380.022 111.963 371.892C115.58 369.475 119 366.775 122.194 363.817C160.642 382.421 202.769 392.082 245.444 392.082C288.12 392.082 330.247 382.421 368.695 363.817C372.105 366.753 375.515 369.445 378.925 371.892C365.668 379.958 351.731 386.836 337.273 392.446C344.812 407.678 353.612 422.248 363.58 436C408.014 422.225 449.721 400.779 486.83 372.626C497.021 272.358 471.095 171.742 413.757 89.0328C382.173 73.5866 348.665 62.4762 314.133 56ZM164.576 314.146C152.387 313.267 141.011 307.678 132.836 298.553C124.661 289.429 120.323 277.477 120.732 265.208C120.261 252.923 124.578 240.937 132.765 231.799C140.953 222.66 152.365 217.089 164.576 216.27C176.788 217.089 188.2 222.66 196.387 231.799C204.575 240.937 208.891 252.923 208.42 265.208C208.891 277.493 204.575 289.479 196.387 298.617C188.2 307.756 176.788 313.327 164.576 314.146ZM326.312 314.146C314.123 313.267 302.747 307.678 294.572 298.553C286.397 289.429 282.059 277.477 282.468 265.208C281.997 252.923 286.314 240.937 294.501 231.799C302.688 222.66 314.101 217.089 326.312 216.27C338.546 217.028 349.995 222.581 358.195 231.733C366.395 240.886 370.69 252.906 370.156 265.208C370.69 277.51 366.395 289.53 358.195 298.683C349.995 307.835 338.546 313.388 326.312 314.146Z" fill="white"/>
</svg>
