<svg width="400" height="400" viewBox="0 0 400 400" fill="none" xmlns="http://www.w3.org/2000/svg">
<g clip-path="url(#clip0_60_6)">
<path d="M355.533 -0.199951C367.326 -0.199951 378.637 4.48491 386.976 12.824C395.315 21.1631 400 32.4734 400 44.2667V355.533C400 367.327 395.315 378.637 386.976 386.976C378.637 395.315 367.326 400 355.533 400H44.2665C32.4732 400 21.1629 395.315 12.8238 386.976C4.48467 378.637 -0.200195 367.327 -0.200195 355.533V44.2667C-0.200195 32.4734 4.48467 21.1631 12.8238 12.824C21.1629 4.48491 32.4732 -0.199951 44.2665 -0.199951H355.533ZM344.416 344.417V226.58C344.416 207.357 336.78 188.921 323.187 175.328C309.595 161.736 291.159 154.099 271.936 154.099C253.037 154.099 231.026 165.661 220.354 183.003V158.324H158.323V344.417H220.354V234.806C220.354 217.687 234.139 203.68 251.259 203.68C259.514 203.68 267.431 206.959 273.269 212.797C279.106 218.634 282.385 226.551 282.385 234.806V344.417H344.416ZM86.0651 123.417C95.9715 123.417 105.472 119.482 112.477 112.477C119.482 105.472 123.417 95.9718 123.417 86.0654C123.417 65.3884 106.742 48.4911 86.0651 48.4911C76.0998 48.4911 66.5426 52.4498 59.4961 59.4963C52.4495 66.5429 48.4908 76.1001 48.4908 86.0654C48.4908 106.742 65.3881 123.417 86.0651 123.417ZM116.969 344.417V158.324H55.3831V344.417H116.969Z" fill="white"/>
</g>
<defs>
<clipPath id="clip0_60_6">
<rect width="400" height="400" fill="white"/>
</clipPath>
</defs>
</svg>
