<svg width="400" height="400" viewBox="0 0 400 400" fill="none" xmlns="http://www.w3.org/2000/svg">
<path d="M272.727 181.286C302.909 181.286 327.091 156.879 327.091 126.643C327.091 96.4071 302.909 72 272.727 72C242.545 72 218.182 96.4071 218.182 126.643C218.182 156.879 242.545 181.286 272.727 181.286ZM127.273 181.286C157.455 181.286 181.636 156.879 181.636 126.643C181.636 96.4071 157.455 72 127.273 72C97.0909 72 72.7273 96.4071 72.7273 126.643C72.7273 156.879 97.0909 181.286 127.273 181.286ZM127.273 217.714C84.9091 217.714 0 239.025 0 281.464V327H254.545V281.464C254.545 239.025 169.636 217.714 127.273 217.714ZM272.727 217.714C267.455 217.714 261.455 218.079 255.091 218.625C276.182 233.925 290.909 254.507 290.909 281.464V327H400V281.464C400 239.025 315.091 217.714 272.727 217.714Z" fill="white"/>
</svg>
